<svg width="112" height="38" viewBox="0 0 112 38" fill="none" xmlns="http://www.w3.org/2000/svg">
<g filter="url(#filter0_dd_2162_2428)">
<path fill-rule="evenodd" clip-rule="evenodd" d="M9.34906 0.103386C7.22375 1.01086 4.88136 3.5683 4.14431 6.78057C3.21039 10.8488 7.10259 12.5709 7.42568 12.0089C7.7942 11.3437 6.72397 11.1169 6.50185 9.00802C6.2141 6.28043 7.46606 3.23316 9.03607 1.89772C9.32887 1.65022 9.31372 1.99568 9.31372 2.63504C9.31372 3.7797 9.25314 14.0456 9.25314 16.1853C9.25314 19.0831 9.13703 20.0009 8.92501 20.9032C8.70793 21.821 8.36465 22.4397 8.62716 22.6769C8.91996 22.945 10.1669 22.3108 10.8837 21.2848C11.747 20.0576 12.0499 18.5829 12.1054 16.9845C12.171 15.051 12.166 11.9934 12.171 10.2455C12.171 8.64193 12.1963 3.95501 12.1458 1.13461C12.1256 0.448846 10.2426 -0.273011 9.34906 0.103386ZM107.522 15.3294C107.214 15.3294 107.073 15.6543 106.957 16.1957C106.553 18.088 106.129 18.5159 105.579 18.5159C104.968 18.5159 104.418 17.5775 104.276 15.7007C104.165 14.226 104.18 11.5087 104.322 8.80693C104.352 8.25007 104.201 7.70352 102.737 7.16212C102.106 6.9301 101.187 6.58464 100.732 7.70867C99.4452 10.8694 98.9404 13.3804 98.8192 14.4013C98.8142 14.4529 98.7485 14.4632 98.7384 14.3446C98.6627 13.5248 98.4961 12.0398 98.4709 8.92036C98.4658 8.31194 98.3396 7.79117 97.6783 7.36837C97.2492 7.09509 95.9468 6.60526 95.4773 7.1879C95.0734 7.66227 94.5989 8.93583 94.1092 10.4466C93.7104 11.6737 93.4378 12.5039 93.4378 12.5039C93.4378 12.5039 93.4428 9.18848 93.4479 7.93554C93.4479 7.46118 93.1298 7.3065 93.0339 7.27556C92.5998 7.14666 91.7416 6.93525 91.3781 6.93525C90.9288 6.93525 90.8228 7.1879 90.8228 7.55915C90.8228 7.60555 90.7521 11.9212 90.7521 14.9376V15.3655C90.5047 16.7525 89.7021 18.6345 88.8287 18.6345C87.9503 18.6345 87.5414 17.8508 87.5414 14.2518C87.5414 12.1533 87.602 11.2406 87.6323 9.72472C87.6474 8.85333 87.6828 8.17788 87.6828 8.02835C87.6777 7.55915 86.8801 7.32712 86.5116 7.23947C86.138 7.15181 85.8149 7.11572 85.5625 7.13119C85.2041 7.15181 84.9517 7.38899 84.9517 7.71899C84.9517 7.89429 84.9517 8.22944 84.9517 8.22944C84.4923 7.49727 83.7552 6.98682 83.2605 6.83729C81.9379 6.44027 80.5546 6.79088 79.5097 8.27585C78.6817 9.45144 78.182 10.7869 77.9851 12.705C77.8387 14.1074 77.8892 15.5305 78.1416 16.7319C77.8336 18.088 77.2581 18.6448 76.6321 18.6448C75.7235 18.6448 75.0621 17.1341 75.1379 14.5199C75.1883 12.8029 75.5266 11.5964 75.8951 9.84847C76.0516 9.10598 75.9254 8.71412 75.6023 8.34288C75.3095 8.00257 74.6785 7.82726 73.7748 8.03867C73.1337 8.19335 72.2099 8.35835 71.3719 8.48209C71.3719 8.48209 71.4224 8.27585 71.4627 7.91492C71.6798 6.01231 69.6454 6.16699 68.9941 6.77541C68.6054 7.1415 68.3429 7.56946 68.242 8.33772C68.0855 9.55972 69.0648 10.1372 69.0648 10.1372C68.7417 11.6325 67.9542 13.5867 67.1414 14.9994C66.7073 15.7574 66.3691 16.3194 65.94 16.9124C65.94 16.6906 65.94 16.4689 65.9349 16.2472C65.9248 13.102 65.9652 10.627 65.9854 9.73503C66.0005 8.86365 66.0359 8.20882 66.0359 8.05413C66.0308 7.71383 65.8339 7.58493 65.425 7.41993C65.0616 7.27556 64.6375 7.17759 64.1933 7.1415C63.638 7.09509 63.2997 7.39931 63.3098 7.75508C63.3098 7.82211 63.3098 8.2346 63.3098 8.2346C62.8504 7.50243 62.1134 6.99197 61.6187 6.84244C60.296 6.44542 58.9128 6.79604 57.8678 8.281C57.0399 9.4566 56.4997 11.1117 56.3432 12.6946C56.2019 14.1693 56.2271 15.4222 56.424 16.4792C56.212 17.5363 55.6062 18.6448 54.9247 18.6448C54.0513 18.6448 53.5515 17.8611 53.5515 14.2621C53.5515 12.1636 53.6121 11.2509 53.6424 9.73503C53.6626 8.86365 53.6929 8.18819 53.6929 8.03867C53.6879 7.56946 52.8902 7.33743 52.5217 7.24978C52.133 7.15697 51.7998 7.12603 51.5423 7.14666C51.2041 7.17244 50.9668 7.4818 50.9668 7.70867V8.23975C50.5075 7.50758 49.7654 6.99713 49.2757 6.8476C47.953 6.45058 46.5799 6.81151 45.5299 8.28616C44.8433 9.25036 44.288 10.3177 44.0053 12.6792C43.9195 13.3598 43.8841 13.9991 43.8892 14.5973C43.6166 16.2988 42.4101 18.253 41.4256 18.253C40.8501 18.253 40.2999 17.1134 40.2999 14.6901C40.2999 11.4572 40.4968 6.85791 40.5321 6.41449C40.5321 6.41449 41.779 6.39386 42.0213 6.38871C42.6423 6.38355 43.2077 6.39902 44.0356 6.35261C44.4495 6.33199 44.8484 4.81609 44.4243 4.63047C44.2274 4.54281 42.8543 4.47063 42.3091 4.46031C41.8749 4.43453 40.5977 4.33657 40.5977 4.33657C40.5977 4.33657 40.7138 1.28414 40.7391 0.959303C40.7593 0.691184 40.416 0.551969 40.2242 0.469471C39.7446 0.263226 39.3205 0.165259 38.8157 0.0621369C38.114 -0.0873908 37.801 0.0569808 37.7354 0.660248C37.6395 1.56773 37.594 4.2386 37.594 4.2386C37.0791 4.2386 35.3274 4.13548 34.8175 4.13548C34.3379 4.13548 33.828 6.21855 34.4843 6.24433C35.2415 6.27527 36.5642 6.30105 37.4426 6.32683C37.4426 6.32683 37.4022 11.0034 37.4022 12.4472C37.4022 12.5967 37.4022 12.7462 37.4022 12.8906C36.9226 15.448 35.2213 16.8247 35.2213 16.8247C35.5848 15.1335 34.8427 13.8651 33.4999 12.7926C33.0052 12.3956 32.0309 11.648 30.9354 10.823C30.9354 10.823 31.5664 10.1888 32.1318 8.91521C32.5306 8.01289 32.5458 6.9765 31.5715 6.74963C29.9611 6.37324 28.6283 7.57461 28.2346 8.86365C27.9266 9.85878 28.0932 10.5961 28.694 11.3644C28.7343 11.4211 28.7848 11.4778 28.8353 11.5345C28.4718 12.2512 27.9721 13.2103 27.548 13.9527C26.3718 16.0204 25.4833 17.6548 24.8119 17.6548C24.2767 17.6548 24.2818 15.9946 24.2818 14.4426C24.2818 13.102 24.3777 11.0911 24.4585 9.00286C24.4837 8.31194 24.1455 7.92007 23.575 7.5643C23.2318 7.34774 22.4947 6.91979 22.0656 6.91979C21.4245 6.91979 19.5819 7.00744 17.8402 12.1326C17.6231 12.7771 17.189 13.9579 17.189 13.9579L17.2243 7.79633C17.2243 7.65196 17.1486 7.51274 16.977 7.41477C16.6842 7.24978 15.8966 6.91979 15.2 6.91979C14.8668 6.91979 14.7002 7.07963 14.7002 7.39415L14.6396 17.0361C14.6396 17.7683 14.6598 18.6242 14.7305 18.9954C14.8012 19.3667 14.9173 19.676 15.0586 19.8565C15.2 20.037 15.3666 20.1762 15.6341 20.2329C15.8865 20.2845 17.2698 20.4649 17.3404 19.9287C17.4263 19.2842 17.4313 18.5881 18.1583 15.9946C19.2891 11.9522 20.7632 9.98253 21.4548 9.28129C21.5759 9.15755 21.7173 9.15239 21.7072 9.35348C21.6769 10.2403 21.5759 12.4575 21.5052 14.3343C21.3185 19.3667 22.2171 20.2999 23.5044 20.2999C24.4888 20.2999 25.877 19.3048 27.3663 16.7886C28.2951 15.2212 29.1937 13.6795 29.845 12.5709C30.2943 12.9937 30.8041 13.4526 31.309 13.9373C32.4852 15.0716 32.8689 16.1493 32.6164 17.1702C32.4196 17.9539 31.6825 18.7583 30.37 17.9745C29.9863 17.7477 29.8248 17.5723 29.4411 17.3094C29.2341 17.1702 28.9161 17.1289 28.7293 17.2784C28.2396 17.6548 27.9569 18.1344 27.7954 18.7273C27.6389 19.3048 28.2093 19.609 28.7949 19.8771C29.3048 20.1092 30.3952 20.3154 31.0919 20.3412C33.8028 20.434 35.9735 19.0109 37.488 15.3397C37.7606 18.5108 38.9116 20.3051 40.9107 20.3051C42.2485 20.3051 43.5913 18.5469 44.1769 16.8195C44.3435 17.5259 44.596 18.1395 44.914 18.6551C46.4588 21.1404 49.4473 20.6041 50.9517 18.4953C51.4161 17.8456 51.4868 17.6084 51.4868 17.6084C51.7039 19.5987 53.284 20.2948 54.1876 20.2948C55.1973 20.2948 56.2423 19.8101 56.9743 18.1344C57.0601 18.3148 57.156 18.4901 57.257 18.6551C58.7967 21.1404 61.7903 20.6041 63.2896 18.4953C63.3603 18.3973 63.4209 18.3097 63.4764 18.2272L63.5218 19.5368C63.5218 19.5368 62.6636 20.336 62.1386 20.8259C59.8215 22.9863 58.0596 24.6259 57.9284 26.5337C57.7618 28.9674 59.7054 29.8697 61.1744 29.9883C62.7343 30.112 64.0721 29.2407 64.8899 28.0135C65.6118 26.9359 66.0864 24.6105 66.051 22.3211C66.0359 21.4033 66.0157 20.2381 65.9955 18.9851C66.8083 18.0261 67.727 16.8092 68.5701 15.3913C69.4889 13.8393 70.4783 11.7614 70.9832 10.1424C70.9832 10.1424 71.8414 10.1475 72.7551 10.0908C73.0479 10.0753 73.1287 10.1321 73.0782 10.3486C73.0126 10.6116 71.9221 14.886 72.9166 17.7322C73.5982 19.6812 75.1328 20.3102 76.0415 20.3102C77.1067 20.3102 78.1264 19.4956 78.6716 18.2787C78.7373 18.4128 78.8079 18.5417 78.8837 18.6654C80.4234 21.1507 83.4069 20.6093 84.9214 18.5056C85.2647 18.0312 85.4565 17.6187 85.4565 17.6187C85.7796 19.6812 87.3597 20.3154 88.2633 20.3154C89.2023 20.3154 90.0958 19.9235 90.8228 18.1808C90.8531 18.949 90.9035 19.5781 90.9742 19.774C91.0197 19.8926 91.2872 20.0473 91.4841 20.1195C92.3474 20.4443 93.2207 20.2896 93.5488 20.2226C93.776 20.1762 93.9476 19.9906 93.9729 19.5214C94.0335 18.2787 93.9981 16.1853 94.3667 14.6334C94.9876 12.0244 95.5681 11.0138 95.8458 10.5136C95.9972 10.2352 96.1739 10.1888 96.179 10.4827C96.1941 11.0859 96.2244 12.8442 96.4617 15.216C96.6384 16.9588 96.8756 17.99 97.0574 18.3148C97.5773 19.2481 98.2185 19.2893 98.7384 19.2893C99.0716 19.2893 99.7632 19.1965 99.7027 18.6036C99.6724 18.3148 99.7279 16.5308 100.339 13.9579C100.743 12.2822 101.409 10.7663 101.651 10.2146C101.742 10.0083 101.783 10.1733 101.783 10.2042C101.732 11.3592 101.616 15.1335 102.08 17.2011C102.706 20.0009 104.524 20.3102 105.155 20.3102C106.503 20.3102 107.608 19.2687 107.982 16.5205C108.052 15.845 107.921 15.3294 107.522 15.3294ZM50.9668 13.6331C50.8911 15.0871 50.6084 16.3039 50.1642 17.1856C49.3514 18.784 47.7511 19.2893 47.0443 16.9794C46.5345 15.314 46.7061 13.0453 46.9181 11.8181C47.2311 9.99799 48.0187 8.70896 49.2504 8.83271C50.5175 8.96161 51.1284 10.6116 50.9668 13.6331ZM63.3098 13.6537C63.2391 15.0252 62.8858 16.4071 62.5071 17.1856C61.7196 18.7943 60.0688 19.2996 59.3873 16.9794C58.9229 15.3965 59.0339 13.3495 59.2611 12.0604C59.559 10.3847 60.2859 8.83271 61.5934 8.83271C62.8656 8.83271 63.4916 10.2506 63.3098 13.6537ZM63.6329 23.0224C63.6178 25.5282 63.229 27.7196 62.3961 28.359C61.2148 29.2613 59.6296 28.5858 59.9578 26.7606C60.2506 25.1415 61.6186 23.4916 63.6329 21.4755C63.638 21.4704 63.638 21.9293 63.6329 23.0224ZM84.9365 13.6692C84.8659 15.1747 84.5377 16.3555 84.1339 17.1856C83.3463 18.7943 81.7056 19.2945 81.014 16.9794C80.6354 15.7213 80.6203 13.6124 80.8929 11.8542C81.1705 10.065 81.9429 8.70896 83.2252 8.83271C84.4822 8.95646 85.0728 10.6116 84.9365 13.6692Z" fill="white"/>
</g>
<defs>
<filter id="filter0_dd_2162_2428" x="0" y="0" width="112" height="38" filterUnits="userSpaceOnUse" color-interpolation-filters="sRGB">
<feFlood flood-opacity="0" result="BackgroundImageFix"/>
<feColorMatrix in="SourceAlpha" type="matrix" values="0 0 0 0 0 0 0 0 0 0 0 0 0 0 0 0 0 0 127 0" result="hardAlpha"/>
<feOffset dy="4"/>
<feGaussianBlur stdDeviation="2"/>
<feComposite in2="hardAlpha" operator="out"/>
<feColorMatrix type="matrix" values="0 0 0 0 0 0 0 0 0 0 0 0 0 0 0 0 0 0 0.25 0"/>
<feBlend mode="normal" in2="BackgroundImageFix" result="effect1_dropShadow_2162_2428"/>
<feColorMatrix in="SourceAlpha" type="matrix" values="0 0 0 0 0 0 0 0 0 0 0 0 0 0 0 0 0 0 127 0" result="hardAlpha"/>
<feOffset dy="4"/>
<feGaussianBlur stdDeviation="2"/>
<feComposite in2="hardAlpha" operator="out"/>
<feColorMatrix type="matrix" values="0 0 0 0 0 0 0 0 0 0 0 0 0 0 0 0 0 0 0.25 0"/>
<feBlend mode="normal" in2="effect1_dropShadow_2162_2428" result="effect2_dropShadow_2162_2428"/>
<feBlend mode="normal" in="SourceGraphic" in2="effect2_dropShadow_2162_2428" result="shape"/>
</filter>
</defs>
</svg>
